<?xml version="1.0" encoding="UTF-8"?>
<svg id="_Слой_2" data-name="Слой 2" xmlns="http://www.w3.org/2000/svg" xmlns:xlink="http://www.w3.org/1999/xlink" viewBox="0 0 30.01 36.22">
  <defs>
    <style>
      .cls-1 {
        fill: none;
      }

      .cls-1, .cls-2 {
        stroke-width: 0px;
      }

      .cls-3 {
        clip-path: url(#clippath-1);
      }

      .cls-2 {
        fill: #fff;
      }

      .cls-4 {
        clip-path: url(#clippath);
      }
    </style>
    <clipPath id="clippath">
      <rect class="cls-1" width="30.01" height="36.22"/>
    </clipPath>
    <clipPath id="clippath-1">
      <rect class="cls-1" width="30.01" height="36.22"/>
    </clipPath>
  </defs>
  <g id="_Слой_1-2" data-name="Слой 1">
    <g class="cls-4">
      <g class="cls-3">
        <path class="cls-2" d="m20.92,21.58l-.64-1.37v1.41h-1v-1.41l-.64,1.37v.03h-1.17l.04-.08.92-1.85-.79-1.64-.04-.08h1.13l.02.04.54,1.26v-1.24s0-.06,0-.06h1v1.29l.54-1.26v-.04h1.15l-.04.08-.79,1.64.92,1.85.04.09h-1.15v-.03Zm-4.74,9.29l.03.07h-2.27l-.28-.65-1.38-3.22v3.87h-2.19v-.74c-4.97-1.81-8.53-6.56-8.53-12.12,0-7.12,5.82-12.91,12.98-12.91,3.47,0,6.73,1.34,9.18,3.78,1.95,1.94,3.21,4.39,3.64,7.05h.64v.76h-1.21s-7.6,0-7.6,0c-.1.1-.21.17-.37.19-.15.02-.26,0-.37-.05-.08-.04-.15-.08-.23-.13,0,0,0,0-.01,0h-1.29c-.08.05-.17.1-.26.13-.73.24-1.71.22-2.29-.13h-3.15c-.38.74-.71.98-1.01,1.2h1.05c1.08,0,1.56.14,1.56.97v.72c0,.8-.47.94-1.41.94h-.09v1.03h-.77c0,.23-.07.43-.24.59,0-.04.01-.07.02-.11.03-.18.05-.34.04-.47,0-.07,0-.14-.01-.2-.03-.18-.08-.31-.14-.41-.11-.17-.24-.25-.31-.28-.11.04.01.32-.11.34-.13-.02-.11-.2-.29-.17-.13.06.03.4-.11.45-.14-.03-.13-.21-.17-.34-.24-.02-.22.07-.4,0-.36.29-.34,1.39.28,1.35.15-.05.06-.36.17-.45.25.1.04.47,0,.62.29.04.43-.06.62-.11.08-.31-.13-.55.17-.62.04.13.08.26.06.45.03-.01.13-.1.17-.14,0,0,.01,0,.01-.01,0,.07-.1.23-.1.3-.03,0-.05.02-.07.02h2.13v3.67s1.42-3.67,1.42-3.67h2.23s-1.79,4-1.79,4l1.76,3.81.29.63Zm-4.86-12.17v1.14h.16c.21,0,.23-.04.23-.2v-.76c0-.16-.04-.19-.23-.19h-.16Zm-1.24,6.25c-.41-.28-.83-.53-1.48-.44-.05.17.18.34.06.39-.24.01-.37-.09-.57-.11.06.3.23.49.45.62-.1.01-.13.1-.11.23.02.02.05.04.08.05.39.24,1.1.2,1.57-.02v-.72Zm-1.42-4.33c-.02-.49-.67-.75-.74-1.24-.08-.57.4-.81.34-1.35-.07,0-.08-.07-.17-.06-.7,1.35-.9,4.14.06,5.42.39.51,1.39,1.17,1.93,1.52v-2.45c-.12.05-.22.12-.31.21-.4.09-1.02-.1-1.22-.36-.47-.6.14-1.03.11-1.69Zm1.56-2.6v-.06c-.22.16-.42.31-.61.63-.27.47.1,1.21.61,2.02v-2.6Zm7.85-2.02c.09-.15.24-.25.43-.29-.57-.19-1.18-.34-1.85-.43-.1-.01-.2-.02-.3-.03-.15-.02-.31-.03-.47-.04-.07,0-.15,0-.22-.01-.01,0-.03,0-.04,0-.12,0-.24-.01-.37-.01.12-.03.26-.05.4-.07,0,0,.01,0,.02,0,.05,0,.11,0,.17-.01.23-.01.48,0,.74.01.1,0,.2.02.3.03.26.04.52.09.77.15-.12-.1-.22-.23-.27-.41-.13-.04-.29-.01-.45.05-.77-.08-.86-.65-.86-.65-.01,0-.03.02-.05.03-.43-.02-.53-.13-.77-.29-.04.02-.09.04-.13.05,0,0-.02,0-.03.01-.17.08-.35.16-.53.26-.14.08-.28.16-.42.25-.04.03-.09.05-.13.09.01-.02.03-.04.05-.05.07-.09.16-.18.27-.26.2-.16.44-.3.69-.42.02,0,.04-.02.06-.03.03-.02.07-.03.11-.04,0-.14-.13-.16-.11-.32-.08,0-.16.02-.23.03-.45.08-.76.32-1.19.42.3-.25.71-.48,1.2-.59.05-.01.11-.02.16-.03-.02-.44,0-1,.45-1.3-.01-.02-.02-.04-.03-.07-.21-.4-.32-.72-.35-1.05-.43.11-1.34-.13-2.57-.18-1.11.1-4.86.81-5.49,6.76-.55,1.18-1.23,3.06-1.12,4.8.03.5.4,1.66.92,2.18,1.68,1.48,1.56,1.07,1.07.09-.16-.32,1.39.79.3-.4,1.31.44-.04-.41-.5-.98-.45-.57-1.03-3.95.42-5.49.18-.01.28.06.33.17,0,.06.01.11.02.16,0,.23-.15.55-.4.88-.07,1.01.92.98.69,1.77.23.2.43-.08.79-.06,1.31,0-1.06-1.32.07-2.45.41-.36,1.24-1.09,1.4-1.69.05-.17.03-.34,0-.5-.1-.5-.46-.97-.58-1.3.01.01.02.02.03.04.18.39.67,1.04.77,1.21.01.02.02.03.02.04,1.25.14,2.11.13,2.72.02.2.29.48.55.87.7.37.14.84.17,1.44,0,.07-.02.14-.04.21-.07.02-.1.66-.63,1.44-.36,0,0,.01,0,.02,0,0-.01,0-.03,0-.04,0-.11.04-.22.09-.3Zm-1.58-4.23c-.35,0-.29.44-1.02.4-.11.1-.18.39-.23.34-.03.28-.08.64-.03.81.22.07.83-.15,1.11.01.1-.48,1.93-.37,2.28-.04,0,0,0-.01,0-.02.49-.13.84.05,1.02.13.09-.13.64.01.78.04,0-.17-.07-.27-.11-.39-.27-.03-.74.06-.74.06,0,0,.33-.31.68-.28.03-.27.05-.5.08-.68.01-.06.02-.11.03-.16-.01,0-.03,0-.04,0-.17-.01-.19.13-.36.12-.12-.13.09-.26-.11-.34.21-.24.09-.16.06-.32,0,0,0,0,0-.01,0,0,0,0-.01,0-.09.09-.2.16-.39.16.07-.26-.53-.5-.85-.68-.13-.07-.21-.07-.25-.07.02-.01.05-.04.1-.08-.16.02-.47.16-.29-.1-.71.35-1.3.45-1.65-.03-.01.06,0,.1,0,.14.01.03.02.06.03.09.04.08.1.14.08.28-.07.07-.21.07-.28,0,.02.4.1.31.11.63Zm-.16,1.94s0,0,0,0c0,0,0,0-.01,0-.05.11-.08.21-.08.32-.02.46.39.83,1.11.66.29.21.39.63.85.68.43.05.68-.35,1.08-.39.24-.03.46.14.68.11.49-.07.81-.66.62-1.18-.22-.17-.53-.26-.85-.33-.02,0-.04,0-.05-.01,0,0-.01.01-.02.02-.29.22-.64.39-.61.94.12.21.35.09.51.17-.2.28-.58-.1-.74-.23-.26.33-1.2.13-1.02-.28.34.4,1.04.36,1.14-.06.06-.18.02-.34-.09-.47-.05-.07-.12-.12-.2-.18-.54-.34-1.64-.38-2.19.03-.02.01-.03.02-.05.04-.02.02-.03.05-.04.07,0,0,0,0,.01,0,.02.01,0,.06-.04.08Zm2.58-.06c.06.12.11.28.14.27.05-.01.28-.18.32-.32.02-.04.01-.08-.01-.11-.12-.12-.45-.15-.56,0,.04.02.07.08.1.15Zm1.95-1.83c-.08.07-.15.16-.21.25-.13.19-.22.41-.24.71.02,0,.04-.02.06-.02.73-.28,1.21-1.33,1.08-2.06-.42.26-.88.48-1.19.84-.06.07-.12.15-.17.23.01,0,.03,0,.04,0,.16.01.46-.15.64.05Zm-4.82,1.96s-.21.09-.41.12c-.06.02-.12.04-.18.06.07.18.44.36.59.24-.17-.05.03-.45,0-.41Zm0-.11s.09-.08.11-.15c-.39-.02-.51-.01-.9,0-.01.11.01.18.06.24.02.02.04.04.06.06.13-.04.26-.08.38-.11.1-.02.19-.04.28-.05Zm.28-2.69c-.17-.64-.23-1.39-.57-1.86-.44.64-.74,2.16-.19,2.85.04.05.09.1.13.14.21-.05.3-.23.51-.28h0c.06-.46-.45-.63-.4-.9.1,0,.19.29.28.11-.06-.02-.27-.18-.11-.23.17-.01.17.25.28.21,0,0,0,0,0,0,.02,0,.04-.02.06-.04Zm3.01,5.13s-.01-.07-.02-.1c-.06-.29-.2-.5-.55-.51,0,.03,0,.06-.01.09l-.14-.08-.02.11v.04s.08.04.12.07c0,0,0,0,.01,0,.19,0,.13.09,0,.08,0,0,0,0-.01,0-.04-.02-.09-.03-.14-.05,0,.02,0,.04,0,.06v.06c-.11.03-.22.07-.3.15-.03.03-.06.06-.07.1.08.05.18.09.17.23-.15-.03-.2-.08-.28.06.1.16.2.31.39.38.1.04.23.05.4.02,0,0,0-.01,0-.02.02-.1-.07-.32.05-.32.15-.02.04.22.23.17.18-.19-.08-.3-.06-.51.15,0,.11.1.23,0Zm2.1-.34c-.39-.56-.6-.8-.8-.92-.29.69-1.67.2-1.73.49.33.08.6.4.65.66.02.12,0,.22-.08.29.31.03,1.43-.06,1.83-.29.12-.07.18-.14.13-.23Zm-11.34,13.72v-3.72c-1.4.94-4.78-1.14-4.38-4.24.12-1.78.9-3.29,1.3-5.19.36-1.69,1.31-3.41,2.21-4.29.83-.82,2.38-1.56,3.97-1.41.61.06,1.06.38,1.93.22.04-.64.1-1.69.68-1.97.37.66.73,1.34,1.25,1.86.58,0,1-.18,1.42-.34,0,.1.04.19.11.26,0,0,0,0,0,0,.23.23.73.32.97.58.68-.23,1.44-.67,2.21-.62,0,.97-.44,1.97-1.25,2.31.11.62.4,1.3.17,1.75.68.68.93,1.07.8,1.31h5.18c-.43-2.48-1.6-4.77-3.43-6.58-2.33-2.31-5.42-3.58-8.71-3.58-6.79,0-12.32,5.5-12.32,12.25,0,5.19,3.27,9.63,7.87,11.41Zm18.2-7.06h-1.53s-3.62,0-3.62,0v1.5h1.48v7.01h2.19v-7.01s1.48,0,1.48,0v-1.5Zm-4.2-.82h1.02v-3.6s0-.06,0-.06h-1.25v.04s-.65,1.95-.65,1.95l.06-1.93v-.06s-1.02,0-1.02,0v3.6s0,.06,0,.06h1.28v-.04s.63-1.89.63-1.89l-.06,1.87v.06Zm-1.64,6.68v.36c0,2.03-.49,2.39-2.83,2.39-1.08,0-1.76-.09-2.19-.39-.21-.14-.36-.33-.46-.58-.14-.35-.19-.81-.19-1.42v-3.94c0-1.92.51-2.39,2.84-2.39,2.29,0,2.83.46,2.83,2.38v3.59Zm-2.25.64v-4.5c0-.48-.11-.61-.58-.61s-.59.12-.59.61v4.5c0,.24.03.39.13.48.09.09.23.12.46.12.46,0,.57-.12.58-.59h0Zm-2.93-7.33v-3.6s0-.06,0-.06h-1.1v3.66h1.05s.06,0,.06,0Zm-1.5-1.33v.36c0,.83-.48.97-1.55.97h-1.05v-3.6s0-.06,0-.06h1.05s.06,0,.06,0v1.37h.1c.9,0,1.39.15,1.39.96Zm-1.11.4v-.42c0-.16-.03-.19-.23-.19h-.16v.81h.16c.19,0,.23-.03.23-.19Zm13.8-2.67v-.06h-1.1c.06,0,.11-.02.16-.03.37-.1.57-.34.61-.74v-.06s-.51,0-.51,0v.05c-.01.08-.04.16-.12.22-.08.06-.21.1-.43.1-.09,0-.16,0-.23-.02-.25-.05-.31-.18-.32-.3v-.05h-.53v.07c.06.47.33.73.86.79.07,0,.14.01.21.01.05,0,.09,0,.13,0v.03s-.4,1.2-.4,1.2l-.24.75.06-1.93v-.06s-1.02,0-1.02,0v3.6s0,.06,0,.06h1.27v-.04s.46-1.39.46-1.39l.16-.5-.07,1.87v.06s.06,0,.06,0h.9s.06,0,.06,0v-3.6Zm-7.43-3.27c.25.07.51.44.68.4-.2-.12-.45-.49-.68-.4Zm-3.47-2.47c0,.28,1,.53,1.04.97.2-.56-.61-.73-1.04-.97Zm3.3,2.13c.98.02,1.82.18,2.55.45.1.01.14-.06,0-.06-.56-.35-1.83-.58-2.55-.39Zm-2.27-1.13s0,0,.01,0c0,0,0-.02,0-.03,0,.01,0,.02-.01.03Z"/>
      </g>
    </g>
  </g>
</svg>