<?xml version="1.0" encoding="UTF-8"?>
<svg id="_Слой_2" data-name="Слой 2" xmlns="http://www.w3.org/2000/svg" viewBox="0 0 60.74 24.22">
  <defs>
    <style>
      .cls-1 {
        fill: #fff;
        stroke-width: 0px;
      }
    </style>
  </defs>
  <g id="_Слой_1-2" data-name="Слой 1">
    <g>
      <path class="cls-1" d="m33.4,22.33c-.16-.09-.33-.13-.52-.13-.18,0-.34.05-.5.14-.15.09-.28.22-.36.37-.09.16-.14.32-.14.5s.05.35.14.51c.09.15.21.28.37.37.15.09.32.14.51.14s.35-.05.51-.14c.16-.09.28-.21.37-.37.09-.16.14-.32.14-.51s-.05-.36-.14-.51c-.09-.16-.22-.28-.37-.37Zm.06,1.2c-.06.1-.14.18-.24.24-.1.06-.21.09-.33.09s-.22-.03-.32-.09c-.1-.06-.18-.14-.24-.24-.06-.1-.09-.21-.09-.33s.03-.23.09-.33c.06-.1.14-.18.24-.24.1-.06.21-.09.34-.09.11,0,.22.03.32.09.1.06.18.14.24.24.06.1.09.21.09.33s-.03.23-.09.33Z"/>
      <polygon class="cls-1" points="36.08 23.01 35.39 23.01 35.39 22.24 35.03 22.24 35.03 24.17 35.39 24.17 35.39 23.36 36.08 23.36 36.08 24.17 36.44 24.17 36.44 22.24 36.08 22.24 36.08 23.01"/>
      <path class="cls-1" d="m38.23,22.64c.1-.06.21-.09.32-.09.09,0,.19.02.28.07.04.02.08.04.11.07.03.03.07.06.11.11h.41c-.04-.08-.07-.13-.1-.17-.03-.04-.06-.08-.1-.12-.1-.09-.2-.17-.33-.22-.13-.05-.26-.08-.39-.08-.18,0-.35.04-.5.14-.15.09-.28.21-.37.37-.09.15-.14.32-.14.5s.04.35.14.51.21.28.37.37c.15.09.32.14.5.14.09,0,.17-.01.26-.03.09-.02.17-.05.24-.1.08-.04.15-.1.21-.16.04-.04.07-.08.1-.12.02-.04.06-.09.09-.16h-.42s-.09.09-.12.11-.08.05-.12.07c-.08.03-.16.05-.24.05-.11,0-.22-.03-.32-.09-.1-.06-.18-.14-.24-.24-.06-.1-.09-.21-.09-.33s.03-.23.09-.33c.06-.1.13-.18.23-.24Z"/>
      <polygon class="cls-1" points="40.37 22.58 40.72 22.58 40.72 24.17 41.08 24.17 41.08 22.58 41.44 22.58 41.44 22.24 40.37 22.24 40.37 22.58"/>
      <path class="cls-1" d="m43.46,22.34c-.08-.05-.16-.08-.24-.09-.06,0-.15-.01-.28-.01h-.46v1.93h.36v-.73h.07c.21,0,.36-.01.44-.04.05-.02.1-.05.14-.08.07-.05.13-.13.17-.21.04-.09.06-.18.06-.28s-.02-.19-.07-.28c-.05-.09-.11-.16-.19-.21Zm-.15.64s-.07.07-.13.09c-.04.01-.11.02-.21.02h-.14v-.51h.14c.08,0,.15,0,.2.02.06.02.1.04.14.08.03.04.05.09.05.15s-.02.11-.05.15Z"/>
      <polygon class="cls-1" points="45.41 23.19 45 22.24 44.6 22.24 45.22 23.53 44.89 24.17 45.29 24.17 46.24 22.24 45.85 22.24 45.41 23.19"/>
      <polygon class="cls-1" points="48.2 22.24 47.6 23.07 47.6 22.24 47.24 22.24 47.24 24.17 47.6 24.17 47.6 23.21 48.2 24.17 48.63 24.17 47.92 23.11 48.63 22.24 48.2 22.24"/>
      <polygon class="cls-1" points="49.54 22.58 49.89 22.58 49.89 24.17 50.25 24.17 50.25 22.58 50.62 22.58 50.62 22.24 49.54 22.24 49.54 22.58"/>
      <path class="cls-1" d="m53.06,22.33c-.16-.09-.33-.13-.52-.13-.18,0-.34.05-.5.14-.15.09-.27.22-.36.37-.09.16-.13.32-.13.5s.04.35.14.51c.09.15.21.28.37.37.15.09.32.14.51.14s.35-.05.51-.14c.16-.09.28-.21.37-.37.09-.16.14-.32.14-.51s-.05-.36-.14-.51c-.09-.16-.21-.28-.37-.37Zm.06,1.2c-.06.1-.14.18-.24.24-.1.06-.21.09-.32.09s-.22-.03-.32-.09c-.1-.06-.18-.14-.24-.24-.06-.1-.09-.21-.09-.33s.03-.23.09-.33c.06-.1.14-.18.24-.24.1-.06.21-.09.34-.09.11,0,.22.03.32.09.1.06.18.14.24.24.06.1.09.21.09.33s-.03.23-.09.33Z"/>
      <path class="cls-1" d="m55.66,22.34c-.08-.05-.16-.08-.24-.09-.06,0-.15-.01-.28-.01h-.46v1.93h.36v-.73h.07c.22,0,.36-.01.44-.04.05-.02.1-.05.14-.08.07-.05.13-.13.17-.21.04-.09.06-.18.06-.28s-.02-.19-.07-.28c-.05-.09-.11-.16-.19-.21Zm-.15.64s-.07.07-.13.09c-.04.01-.11.02-.21.02h-.13v-.51h.13c.09,0,.15,0,.2.02.06.02.1.04.14.08.03.04.05.09.05.15s-.02.11-.05.15Z"/>
      <polygon class="cls-1" points="58.72 4.04 58.72 14.13 52.66 17.83 52.66 4.04 50.65 4.04 50.65 20.22 52.6 20.22 52.61 20.23 52.63 20.22 52.66 20.22 52.66 20.2 58.72 16.5 58.72 24.22 60.74 24.22 60.74 4.04 58.72 4.04"/>
      <polygon class="cls-1" points="14.15 16.15 22.31 16.15 22.31 14.13 14.15 14.13 14.15 6.05 22.31 6.05 22.31 4.03 14.15 4.03 12.14 4.03 12.14 6.05 12.14 24.21 12.16 24.21 14.15 24.21 26.32 24.21 26.32 22.2 14.15 22.2 14.15 16.15"/>
      <polygon class="cls-1" points="10.17 4.02 8.16 4.02 8.16 4.04 2.01 4.04 0 4.04 0 6.05 0 18.18 0 20.18 0 20.2 2.01 20.2 2.01 20.18 10.17 20.18 10.17 18.18 2.01 18.18 2.01 6.05 8.16 6.05 8.16 10.04 10.17 10.04 10.17 6.05 10.17 6.05 10.17 4.04 10.17 4.04 10.17 4.02"/>
      <polygon class="cls-1" points="30.43 6.01 30.43 20.17 32.44 20.17 32.44 6.01 32.44 3.99 30.43 3.99 26.35 3.99 24.31 3.99 24.31 6.01 24.31 18.16 16.24 18.16 16.24 20.18 24.31 20.18 25.89 20.18 26.35 20.18 26.35 6.01 30.43 6.01"/>
      <rect class="cls-1" x="44.57" width="4.05" height="2.02"/>
      <path class="cls-1" d="m48.62,16.15V4.04h0s-14.15,0-14.15,0h0v14.14h6.08v2.01h2.01v-2.01h6.06v-2.02Zm-12.14-10.1h4.07v10.1h-4.07V6.05Zm6.08,0h4.09v10.1h-4.09V6.05Z"/>
      <polygon class="cls-1" points="30.49 22.24 29.89 23.07 29.89 22.24 29.53 22.24 29.53 24.17 29.89 24.17 29.89 23.21 30.49 24.17 30.92 24.17 30.21 23.11 30.92 22.24 30.49 22.24"/>
    </g>
  </g>
</svg>